<?xml version="1.0" encoding="UTF-8"?>
<!DOCTYPE svg PUBLIC "-//W3C//DTD SVG 1.1//EN" "http://www.w3.org/Graphics/SVG/1.1/DTD/svg11.dtd">
<!-- Creator: CorelDRAW -->
<svg xmlns="http://www.w3.org/2000/svg" xml:space="preserve" width="151.348mm" height="151.12mm" version="1.1" style="shape-rendering:geometricPrecision; text-rendering:geometricPrecision; image-rendering:optimizeQuality; fill-rule:evenodd; clip-rule:evenodd"
viewBox="0 0 16859.19 16833.82"
 xmlns:xlink="http://www.w3.org/1999/xlink"
 xmlns:xodm="http://www.corel.com/coreldraw/odm/2003">
 <defs>
  <style type="text/css">
   <![CDATA[
    .str0 {stroke:white;stroke-width:471.56;stroke-miterlimit:22.9256}
    .fil1 {fill:none}
    .fil0 {fill:white}
   ]]>
  </style>
 </defs>
 <g id="Capa_x0020_1">
  <metadata id="CorelCorpID_0Corel-Layer"/>
  <path class="fil0" d="M11250.43 12000.14c150.41,13 1023.72,17.28 989.94,259.48 -101.3,224.41 -747.96,161.46 -1011.01,170.14 105.31,996.02 1127.69,1557 2019.85,1216.82 485.15,-184.98 849.3,-636.07 898.7,-1200.44 -257.25,4.41 -931.91,16.32 -1021.21,-186.52 31.84,-163.35 282.26,-167.89 434.85,-192.97 186.07,-30.59 385.09,-41.05 571.46,-57.6 -65.39,-625.21 -714.01,-1196.62 -1444.56,-1193.53 -712.32,3.02 -1335.42,574.58 -1438.02,1184.61zm1938.3 -793.12c-82.4,37.68 -216.83,275.42 -268.09,371.66 -168.13,315.61 1.34,540.47 416.44,-20.3 116.06,-156.76 4.04,-421.08 -148.35,-351.37zm-559.31 785.64c-363.33,90.89 -210.93,633.75 138.31,523.06 320.87,-101.7 209.29,-610.01 -138.31,-523.06zm-244.03 612.27c-104.83,48.68 -222.83,245.21 -285.01,351.9 -101.15,173.55 -19.38,421.28 144.47,382.95 180.11,-42.12 484.68,-894.66 140.55,-734.85zm-243.08 -1396.81c-445.74,218.62 253.69,698.74 266.72,700.29 233.45,27.77 85.02,-308.6 36.68,-407.2 -60.32,-123.03 -153.86,-366.44 -303.4,-293.09zm768.66 1401.53c-167.09,112.94 14.87,326.84 99.5,460.6 76.75,121.34 186.26,387.62 374.93,234.77 62.11,-50.29 117.68,-131.93 63.97,-235.49 -24.23,-46.72 -125.63,-170.83 -151.8,-199.86 -118.51,-131.53 -279.55,-332.39 -386.6,-260.03z"/>
  <path class="fil0" d="M2298.4 11990.83c297.8,3.42 831.17,38.89 998.99,203.14 15.09,199.93 -225.76,200.64 -405.7,220.16 -200.15,21.71 -414.38,14.94 -620.75,12.68 63.68,711.35 687.85,1289.58 1444.02,1311.76 779.18,22.86 1427.65,-587.04 1468,-1285.29 -956.58,36.51 -1393.49,-243.75 -601.37,-373.84 192.28,-31.58 381.87,-52.13 583.35,-62.57 -6.15,-374.89 -304.55,-681.62 -469.42,-845.93 -477.17,-475.56 -1350.37,-468.69 -1914.56,1.77 -142.22,118.59 -495.43,525.04 -482.55,818.13zm943.73 -782.63c-165.43,61.8 -189.34,234.85 -76.77,381.44 64.43,83.91 232.68,295.22 318.4,307.74 317.09,46.32 -64.6,-755.33 -241.62,-689.18zm1045.19 2.83c-123.28,51.27 -388.41,476.66 -372.56,587.63 13.17,92.07 99.82,138.36 189.84,89.89l309.45 -325.07c132.25,-174.1 10.6,-409.58 -126.73,-352.46zm-826.76 1399.48c-95.25,48.65 -220.12,224.9 -281.6,354.52 -120.73,254.53 39.48,390.38 135.77,370.8 127.35,-25.89 338.8,-472.61 311.73,-614.15 -14.93,-78.09 -80.98,-154.53 -165.9,-111.17zm195.14 -618.82c-350.8,103.28 -189.64,636.73 145.49,528.7 337.98,-108.94 204.42,-631.72 -145.49,-528.7zm350.32 594.18c-185.8,86.79 1,322.68 83.83,453.12 82.36,129.7 195.45,401.27 375.08,253.2 210.6,-173.62 78.54,-249.42 -58.84,-415.99 -54.01,-65.49 -288.31,-342.52 -400.08,-290.32z"/>
  <path class="fil0" d="M538.28 9449.32c297.68,27.97 567.25,45.11 861.16,93.59 234.68,38.71 658.51,71.25 626.45,341.88 -43.29,365.53 -1225.77,245.96 -1674.1,275.16 -333.45,519.93 -493.27,1334.19 -192.74,1888.97 310.92,573.99 1017.21,788.51 1636.17,794.21 -119.28,-701.4 -129.47,-1197.05 362.88,-1814.59 299.39,-375.53 843.59,-763.45 1601.31,-755.4 995.55,10.55 1748.57,744.99 1926.78,1605.25 38.79,187.19 43.67,361.41 28.57,553.09 -15.64,198.79 -79.32,339.44 -104.24,509.76l5185.67 -2.73c-58.26,-373.56 -169.02,-533.83 -66.42,-1069.8 61.93,-323.61 217.75,-618.12 379.9,-817.81 1175.32,-1447.52 3247.69,-724.85 3541.02,857.94 83.48,450.46 6.67,665.54 -82.49,1060.27 217.2,4.28 487.17,-19.82 702.2,-48.07 475.59,-62.46 596.06,-330.28 678.43,-840.39 59.41,-367.81 -13.57,-542.29 -0.7,-677.11l899.91 -5.15 -1.58 -497.32 -1115.98 -5.11c-127.52,-236.88 -431.81,-493.66 -679.31,-648.97 -846.87,-531.36 -2254.87,-666.16 -3255.59,-730.84 -1057.18,-68.33 -1030.28,-105.88 -1817.65,-839.81 -401.89,-374.61 -932.98,-832.55 -1556.01,-1122.97 -1411.09,-657.73 -2987.6,-536.7 -4370.06,77.21 -1472.64,653.97 -1076.51,1058.53 -2884.3,1106.49 -378.21,10.03 -527.07,-29.14 -629.28,712.23zm5635.37 -1689.53c-1711.64,68.91 -2301.86,1209 -1703.7,1567.44 766.86,459.55 4655.3,701.39 4987.98,507.83 400.06,-232.75 -380.33,-967.6 -516.98,-1123.51 -133.38,-152.2 -346.36,-291.27 -524.2,-411.93 -625.13,-424.13 -1471.63,-570.88 -2243.11,-539.82z"/>
  <path class="fil1" d="M11199 1008.23c-407.4,77.6 -695.28,399.69 -717.8,844.2 -25.62,506.04 -4,1074.18 -3.9,1586.84 0.2,1059.89 0.28,2119.78 0.23,3179.68 -0.01,389.28 -41.38,1196.28 22.08,1537.81 74.71,402.1 394.76,722.31 838.04,739.47 518.11,20.06 1068.78,3.11 1590.41,3.56 389.52,0.33 1236.56,41.95 1569.4,-16.68 393.48,-69.3 686.43,-406.85 726.04,-838.24 41.95,-456.67 8.31,-1102.52 7.29,-1578.39 -2.29,-1060.04 -1.83,-2119.66 -0.59,-3179.68 0.45,-383.62 40.07,-1208.59 -23.36,-1539.56 -75.17,-392.29 -397.31,-722.35 -840.29,-752.37 -489.61,-33.17 -1089.66,-5.98 -1590.93,-5.93 -385.8,0.03 -1248.7,-43.18 -1576.62,19.27z"/>
  <path class="fil1 str0" d="M11226.08 1425.4c-407.89,113.57 -318.4,595.04 -315.37,1033.83 12.58,1823.02 -18.54,3677.4 -4.27,5488.99 4.28,543.24 367.48,528.04 845.57,528.39 418.84,0.31 2492.16,48.72 2726.78,-24.36 410.24,-127.8 328.38,-572.42 328.12,-1027.49l0.63 -4116.17c-0.65,-455.48 8.32,-918.15 0.89,-1372.57 -9.91,-606.55 -544.63,-525.96 -856.77,-525.96 -339.76,0 -2589.2,-22.65 -2725.59,15.33z"/>
  <path class="fil1" d="M6173.65 7759.79c-1711.64,68.91 -2301.86,1209 -1703.7,1567.44 766.86,459.55 4655.3,701.39 4987.98,507.83 400.06,-232.75 -380.33,-967.6 -516.98,-1123.51 -133.38,-152.2 -346.36,-291.27 -524.2,-411.93 -625.13,-424.13 -1471.63,-570.88 -2243.11,-539.82z"/>
  <path class="fil0" d="M7503.5 9.22c-1237.98,59.23 -2387.92,496.47 -3361.4,1112.4 -467.22,295.62 -853.23,634.19 -1233.36,1009.4 -310.51,306.49 -747.17,880.06 -971.86,1271.23 -328.76,572.33 174.39,859.12 487.95,726.61 179.68,-75.93 235.79,-230.79 336.99,-401.3 257.26,-433.41 618.87,-911.07 997.29,-1246.62 130.84,-116.01 222.52,-218.84 391.48,-349.52 1118.74,-865.2 2375.83,-1375.48 3877.28,-1353.39 229.98,3.39 461.06,18.46 686.56,54.34 222.88,35.47 455.42,114.48 637.25,-11.02 157.11,-108.43 212.22,-336.9 99.17,-524.25 -101.27,-167.83 -299.67,-195.91 -537.34,-227.8 -470.55,-63.16 -930.43,-83.05 -1410.02,-60.1z"/>
  <path class="fil0" d="M7915.35 1729.39c-1529.13,68.26 -2719.74,783.05 -3458.83,1535.47 -337.71,343.79 -754.23,911.3 -987.49,1517.68 -131.77,342.55 -73.52,730.77 333.75,752.94 404.39,22.01 442.51,-401.27 575.49,-692.69 297.29,-651.5 607.08,-965.56 1092.39,-1390.57 707.14,-619.29 1783.92,-986.42 2796.87,-953.65 309.61,10.01 872.28,160.7 1081.47,-2.95 198.83,-155.53 247.14,-609.6 -264.36,-703.16 -364.89,-66.75 -793.62,-79.84 -1169.29,-63.07z"/>
  <path class="fil0" d="M4857.29 16824.36l1823.5 6.77c126.48,-192.73 278.93,-388.4 422.44,-595.78l1290.76 -1821.86 -1021.16 -8.49c-138.35,11.45 -312.86,229.79 -395.96,309.91l-2119.58 2109.45z"/>
  <path class="fil0" d="M11056.84 16829.84l1868.18 3.85c-59.06,-271.05 -913.79,-2203.44 -973.09,-2424.26l-1048.13 -2.75 153.04 2423.15z"/>
  <path class="fil0" d="M3515.43 15054.99c-40.98,87.49 -1256.07,1163.04 -1354.53,1299.02 42.16,70.52 242.05,263.58 313.42,312.43 87.29,-31.09 1522.87,-1487.78 1706.39,-1676.69 130.95,-134.8 487.85,-446.61 557.34,-584.59l-4538.52 0.07c32.42,87.87 338.29,486.96 415.06,584.94 83.65,106.75 151.75,65.7 422.34,65.53 166.96,-0.11 333.96,-0.25 500.9,-0.07 659.12,0.7 1318.87,-1.93 1977.6,-0.62z"/>
  <path class="fil0" d="M13995.22 16831.38c86.7,-40.95 474.95,-394.82 544.03,-477.38 -29.79,-72.56 -69.08,-114.49 -118.63,-164.14 -69.33,-69.46 -85.64,-98.49 -142.9,-162.02 -102.09,-113.29 -196.05,-208.57 -288.01,-321.57 -93.08,-114.35 -507.94,-535.55 -551.01,-648.05l2766.21 -2.72c59.11,-111.65 139.67,-200.68 227.26,-314.92 69.93,-91.23 185.24,-221.12 232.02,-336.98l-4120.92 1.48c36.69,121.36 1400.25,2366.98 1451.94,2426.29z"/>
  <path class="fil0" d="M7977.51 16833.82l1849.64 -0.87 330.05 -2425.83 -978.45 2.37c-50.45,164 -1123.76,2181.6 -1201.25,2424.32z"/>
  <path class="fil0" d="M15481.44 5045.49c219.32,27.26 529.05,-55.27 700.95,61.5 168.44,114.42 143.02,368.46 142.68,619.04 -0.86,638.13 -26.52,4290.29 11.15,4606.04l506 1.84 9.55 -1776.66c0.57,-458.93 30.79,-3329.92 -35.16,-3539.58 -70.02,-222.61 -233.87,-375.08 -448.39,-442.09 -144.68,-45.2 -725.81,-52.68 -885.91,-23.73l-0.88 493.64z"/>
  <polygon class="fil0" points="11297.34,6549.97 11700.98,6553.39 11705.72,2481.62 11295.57,2475.79 "/>
  <path class="fil0" d="M8359.93 3410.84c-1918.28,146.68 -1359.71,866.89 -1051.08,860.04 171.38,-3.79 659.71,-314.84 1416.02,-275.51 263.41,13.69 554.64,123.75 678.13,-73.5 151.73,-242.34 -68.64,-441.76 -264.78,-482.52 -205.2,-42.63 -567.93,-44.6 -778.3,-28.51z"/>
  <polygon class="fil0" points="11996.51,6541.28 12826.61,6543.32 12832.15,5517.16 11996.37,5506.39 "/>
  <polygon class="fil0" points="11995.85,3493.67 12828.42,3497.21 12832.91,2484.95 11993.89,2473.89 "/>
  <polygon class="fil0" points="13100.44,3673.9 14425.89,3670.6 14440.55,3259.89 13100.19,3258.72 "/>
  <path class="fil0" d="M13098.17 5769.95c189.41,10.1 1227.05,25.84 1340.25,-12.69l-0.7 -384.03 -1330.17 -7.98 -9.38 404.69z"/>
  <polygon class="fil0" points="13100.5,4460.84 14428.56,4463.23 14441.88,4060.76 13092.8,4058.96 "/>
  <polygon class="fil0" points="13099.21,2879.81 14434.26,2883.96 14435.74,2479.25 13097.86,2480.14 "/>
  <polygon class="fil0" points="13097.49,6553.31 14431.47,6555.57 14438.34,6160.08 13094.27,6153.01 "/>
  <path class="fil0" d="M12042.69 7359.47c-79.94,38.26 -115.19,48.12 -156.03,134.02 -119.76,251.92 120.26,520.68 394.86,416.02 338.88,-129.17 135,-728.97 -238.83,-550.04z"/>
  <path class="fil0" d="M13456.08 7356.38c-382.3,168.4 -128.23,704.32 239.72,552.67 340.89,-140.49 125.99,-713.75 -239.72,-552.67z"/>
  <path class="fil0" d="M12750.47 7350.48c-327.91,120.88 -192.13,687.55 214.37,567.82 351.77,-103.62 189.29,-716.63 -214.37,-567.82z"/>
  <path class="fil1" d="M4006.02 12585.87c-185.8,86.79 1,322.68 83.83,453.12 82.36,129.7 195.45,401.27 375.08,253.2 210.6,-173.62 78.54,-249.42 -58.84,-415.99 -54.01,-65.49 -288.31,-342.52 -400.08,-290.32z"/>
  <path class="fil1" d="M12910.97 12609.65c-167.09,112.94 14.87,326.84 99.5,460.6 76.75,121.34 186.26,387.62 374.93,234.77 62.11,-50.29 117.68,-131.93 63.97,-235.49 -24.23,-46.72 -125.63,-170.83 -151.8,-199.86 -118.51,-131.53 -279.55,-332.39 -386.6,-260.03z"/>
  <path class="fil1" d="M3655.7 11991.69c-350.8,103.28 -189.64,636.73 145.49,528.7 337.98,-108.94 204.42,-631.72 -145.49,-528.7z"/>
  <path class="fil1" d="M12142.31 11208.12c-445.74,218.62 253.69,698.74 266.72,700.29 233.45,27.77 85.02,-308.6 36.68,-407.2 -60.32,-123.03 -153.86,-366.44 -303.4,-293.09z"/>
  <path class="fil1" d="M12385.4 12604.93c-104.83,48.68 -222.83,245.21 -285.01,351.9 -101.15,173.55 -19.38,421.28 144.47,382.95 180.11,-42.12 484.68,-894.66 140.55,-734.85z"/>
  <path class="fil1" d="M12629.43 11992.66c-363.33,90.89 -210.93,633.75 138.31,523.06 320.87,-101.7 209.29,-610.01 -138.31,-523.06z"/>
  <path class="fil1" d="M3460.56 12610.51c-95.25,48.65 -220.12,224.9 -281.6,354.52 -120.73,254.53 39.48,390.38 135.77,370.8 127.35,-25.89 338.8,-472.61 311.73,-614.15 -14.93,-78.09 -80.98,-154.53 -165.9,-111.17z"/>
  <path class="fil1" d="M4287.32 11211.03c-123.28,51.27 -388.41,476.66 -372.56,587.63 13.17,92.07 99.82,138.36 189.84,89.89l309.45 -325.07c132.25,-174.1 10.6,-409.58 -126.73,-352.46z"/>
  <path class="fil1" d="M13188.73 11207.02c-82.4,37.68 -216.83,275.42 -268.09,371.66 -168.13,315.61 1.34,540.47 416.44,-20.3 116.06,-156.76 4.04,-421.08 -148.35,-351.37z"/>
  <path class="fil1" d="M3242.13 11208.2c-165.43,61.8 -189.34,234.85 -76.77,381.44 64.43,83.91 232.68,295.22 318.4,307.74 317.09,46.32 -64.6,-755.33 -241.62,-689.18z"/>
 </g>
</svg>
